<svg id="Réteg_1" data-name="Réteg 1" xmlns="http://www.w3.org/2000/svg" xmlns:xlink="http://www.w3.org/1999/xlink" viewBox="0 0 800 800"><defs><style>.cls-1{fill:url(#Névtelen_színátmenet_5);}.cls-2{opacity:0.3;}.cls-11,.cls-3,.cls-4{fill:none;}.cls-10,.cls-11,.cls-12,.cls-3,.cls-4,.cls-5,.cls-6,.cls-8,.cls-9{stroke:#fff;}.cls-11,.cls-12,.cls-3,.cls-4,.cls-8,.cls-9{stroke-miterlimit:10;}.cls-3{stroke-width:2px;}.cls-4{stroke-width:10px;}.cls-5,.cls-8{font-size:15px;}.cls-10,.cls-12,.cls-5,.cls-6,.cls-8,.cls-9{fill:#f2f2f2;}.cls-10,.cls-12,.cls-5,.cls-8{font-family:SegoeScript, Segoe Script;}.cls-6{font-size:110px;font-family:MVBoli, MV Boli;}.cls-7{letter-spacing:0.12em;}.cls-10{font-size:20px;}.cls-12{font-size:12px;}.cls-13{letter-spacing:-0.01em;}.cls-14{letter-spacing:0.09em;}.cls-15{letter-spacing:0.1em;}.cls-16{letter-spacing:0.08em;}.cls-17{letter-spacing:0.1em;}.cls-18{letter-spacing:0.08em;}.cls-19{letter-spacing:0.13em;}.cls-20{letter-spacing:0.16em;}.cls-21{letter-spacing:0.08em;}.cls-22{letter-spacing:-0.03em;}.cls-23{letter-spacing:0.09em;}.cls-24{letter-spacing:0.04em;}.cls-25{letter-spacing:0.1em;}.cls-26{letter-spacing:0.13em;}.cls-27{letter-spacing:0.03em;}.cls-28{letter-spacing:0.14em;}.cls-29{letter-spacing:0.09em;}.cls-30{letter-spacing:0.13em;}.cls-31{letter-spacing:0.13em;}.cls-32{letter-spacing:0.02em;}.cls-33{letter-spacing:-0.01em;}.cls-34{letter-spacing:0.08em;}.cls-35{letter-spacing:-0.02em;}.cls-36{letter-spacing:0.13em;}.cls-37{letter-spacing:0.14em;}.cls-38{letter-spacing:0.1em;}.cls-39{letter-spacing:0.1em;}.cls-40{letter-spacing:0.03em;}.cls-41{letter-spacing:0.1em;}.cls-42{letter-spacing:0.12em;}.cls-43{letter-spacing:0.12em;}.cls-44{letter-spacing:0.14em;}.cls-45{letter-spacing:0.15em;}.cls-46{letter-spacing:0.13em;}.cls-47{letter-spacing:0.12em;}.cls-48{letter-spacing:0.03em;}.cls-49{letter-spacing:0.1em;}.cls-50{letter-spacing:0.15em;}.cls-51{letter-spacing:0.11em;}.cls-52{letter-spacing:0.14em;}.cls-53{letter-spacing:0.1em;}.cls-54{letter-spacing:0.1em;}.cls-55{letter-spacing:0.09em;}.cls-56{letter-spacing:0.15em;}.cls-57{letter-spacing:0.05em;}.cls-58{letter-spacing:0.1em;}.cls-59{letter-spacing:0.07em;}.cls-60{letter-spacing:0.16em;}.cls-61{letter-spacing:0.13em;}.cls-62{letter-spacing:0.14em;}.cls-63{letter-spacing:0.15em;}.cls-64{letter-spacing:0.14em;}.cls-65{letter-spacing:0.15em;}.cls-66{letter-spacing:0.01em;}.cls-67{letter-spacing:0.09em;}.cls-68{letter-spacing:0.11em;}.cls-69{letter-spacing:0.15em;}.cls-70{letter-spacing:0.05em;}.cls-71{letter-spacing:0.03em;}.cls-72{letter-spacing:0.16em;}.cls-73{letter-spacing:0.06em;}.cls-74{letter-spacing:0.11em;}.cls-75{letter-spacing:0.03em;}.cls-76{letter-spacing:0em;}.cls-77{letter-spacing:0.1em;}.cls-78{letter-spacing:0.14em;}.cls-79{letter-spacing:0.13em;}.cls-80{letter-spacing:0.14em;}.cls-81{letter-spacing:0.07em;}.cls-82{letter-spacing:0.15em;}.cls-83{letter-spacing:0.11em;}.cls-84{letter-spacing:0.12em;}.cls-85{letter-spacing:0.09em;}.cls-86{letter-spacing:0.11em;}.cls-87{letter-spacing:0.11em;}.cls-88{letter-spacing:0.1em;}.cls-89{letter-spacing:0.14em;}.cls-90{letter-spacing:0.11em;}.cls-91{letter-spacing:0.12em;}.cls-92{letter-spacing:0.07em;}.cls-93{letter-spacing:0.14em;}.cls-94{letter-spacing:0.08em;}.cls-95{letter-spacing:0.05em;}.cls-96{letter-spacing:0.03em;}.cls-97{letter-spacing:0.15em;}.cls-98{letter-spacing:0.08em;}.cls-99{letter-spacing:0.12em;}.cls-100{letter-spacing:0.01em;}.cls-101{letter-spacing:0.12em;}.cls-102{letter-spacing:0.04em;}.cls-103{letter-spacing:0.01em;}.cls-104{letter-spacing:0.09em;}.cls-105{letter-spacing:0.1em;}.cls-106{letter-spacing:0.15em;}.cls-107{letter-spacing:0.14em;}.cls-108{letter-spacing:0.01em;}.cls-109{letter-spacing:0.12em;}.cls-110{letter-spacing:0.1em;}.cls-111{letter-spacing:0.05em;}.cls-112{letter-spacing:0.08em;}.cls-113{letter-spacing:0.11em;}.cls-114{letter-spacing:0.14em;}.cls-115{letter-spacing:0.12em;}.cls-116{letter-spacing:0.15em;}.cls-117{letter-spacing:0.15em;}.cls-118{letter-spacing:0.08em;}.cls-119{letter-spacing:0.07em;}.cls-120{letter-spacing:0.13em;}.cls-121{letter-spacing:0.09em;}</style><radialGradient id="Névtelen_színátmenet_5" cx="400" cy="400" r="400" gradientUnits="userSpaceOnUse"><stop offset="0" stop-color="#315f9b"/><stop offset="1" stop-color="#0a3071"/></radialGradient></defs><rect class="cls-1" width="800" height="800"/><g class="cls-2"><line class="cls-3" y1="100" x2="800" y2="100"/><line class="cls-3" y1="200" x2="800" y2="200"/><line class="cls-3" y1="300" x2="800" y2="300"/><line class="cls-3" y1="400" x2="800" y2="400"/><line class="cls-3" y1="500" x2="800" y2="500"/><line class="cls-3" y1="600" x2="800" y2="600"/><line class="cls-3" y1="700" x2="800" y2="700"/><line class="cls-3" x1="100" y1="800" x2="100"/><line class="cls-3" x1="200" y1="800" x2="200"/><line class="cls-3" x1="300" y1="800" x2="300"/><line class="cls-3" x1="400" y1="800" x2="400"/><line class="cls-3" x1="500" y1="800" x2="500"/><line class="cls-3" x1="600" y1="800" x2="600"/><line class="cls-3" x1="700" y1="800" x2="700"/></g><polygon class="cls-4" points="751.07 619.27 353.83 254.31 335.9 271.92 727.49 644.66 751.07 619.27"/><polygon class="cls-4" points="342.83 265 242.83 365 142.83 265 350.98 61.2 452.83 155 342.83 265"/><text class="cls-5" transform="translate(48.46 311.88)">head</text><text class="cls-6" transform="translate(52.34 614.13)">Create<tspan x="0" y="132">The Overhaul</tspan></text><text class="cls-5" transform="translate(683.55 423.89)">handle</text><text class="cls-5" transform="translate(561.08 52.72)">Materials: woo<tspan class="cls-7" x="115.76" y="0">d</tspan><tspan x="128.17" y="0">, steel </tspan></text><text class="cls-5" transform="translate(11.34 349.64)">Made in a kiln<tspan x="0" y="18">Out of strong steel</tspan></text><text class="cls-8" transform="translate(687.6 169.03)">Kiln (noun):<tspan x="-72.16" y="18">a furnace or oven for</tspan><tspan x="-125.74" y="36">burning, baking, or drying,</tspan><tspan x="-122.4" y="54">especially one for calcining</tspan><tspan x="-75.07" y="72">lime or firing pottery.</tspan></text><text class="cls-5" transform="translate(637.84 468.06)">From the best tre<tspan class="cls-7" x="135.36" y="0">e</tspan><tspan x="144.97" y="0">, </tspan><tspan x="3.56" y="18">cut by the best saw</tspan></text><text/><line class="cls-9" x1="243.83" y1="365" x2="243.83" y2="345"/><line class="cls-9" x1="233.83" y1="355" x2="233.83" y2="335"/><line class="cls-9" x1="223.83" y1="345" x2="223.83" y2="325"/><line class="cls-9" x1="213.83" y1="335" x2="213.83" y2="315"/><line class="cls-9" x1="203.83" y1="325" x2="203.83" y2="305"/><line class="cls-9" x1="193.83" y1="315" x2="193.83" y2="295"/><line class="cls-9" x1="183.83" y1="305" x2="183.83" y2="285"/><line class="cls-9" x1="173.83" y1="295" x2="173.83" y2="275"/><line class="cls-9" x1="163.83" y1="285" x2="163.83" y2="265"/><line class="cls-9" x1="253.83" y1="355" x2="253.83" y2="335"/><line class="cls-9" x1="263.83" y1="345" x2="263.83" y2="325"/><line class="cls-9" x1="273.83" y1="335" x2="273.83" y2="315"/><line class="cls-9" x1="283.83" y1="325" x2="283.83" y2="305"/><line class="cls-9" x1="293.83" y1="315" x2="293.83" y2="295"/><line class="cls-9" x1="303.83" y1="305" x2="303.83" y2="285"/><line class="cls-9" x1="313.83" y1="295" x2="313.83" y2="275"/><line class="cls-9" x1="323.83" y1="285" x2="323.83" y2="265"/><line class="cls-9" x1="333.83" y1="275" x2="333.83" y2="255"/><line class="cls-9" x1="343.83" y1="265" x2="343.83" y2="245"/><line class="cls-9" x1="353.83" y1="255" x2="353.83" y2="235"/><line class="cls-9" x1="363.83" y1="245" x2="363.83" y2="225"/><line class="cls-9" x1="373.83" y1="235" x2="373.83" y2="215"/><line class="cls-9" x1="383.83" y1="225" x2="383.83" y2="205"/><line class="cls-9" x1="393.83" y1="215" x2="393.83" y2="195"/><line class="cls-9" x1="403.83" y1="205" x2="403.83" y2="185"/><line class="cls-9" x1="413.83" y1="195" x2="413.83" y2="175"/><line class="cls-9" x1="423.83" y1="185" x2="423.83" y2="165"/><line class="cls-9" x1="433.83" y1="175" x2="433.83" y2="155"/><path class="cls-3" d="M333.76,78.06c11.1,10.76,24.65,9.57,35.52,0"/><text class="cls-10" transform="translate(361.58 52.72)">90°</text><line class="cls-11" x1="350.21" y1="75.63" x2="376.35" y2="58.29"/><text class="cls-5" transform="translate(54.43 31.46)">„Don’t stress,<tspan x="-45.12" y="18">use electricity instead” </tspan></text><text class="cls-12" transform="translate(8.98 111.01)"><tspan class="cls-13">U</tspan><tspan class="cls-14" x="9.1" y="0">s</tspan><tspan class="cls-15" x="15" y="0">e</tspan><tspan x="22.47" y="0">d </tspan><tspan class="cls-16" x="35.75" y="0">f</tspan><tspan class="cls-17" x="41.47" y="0">o</tspan><tspan x="49.7" y="0">r </tspan><tspan class="cls-18" x="61.03" y="0">g</tspan><tspan class="cls-19" x="68.23" y="0">e</tspan><tspan class="cls-20" x="76.06" y="0">n</tspan><tspan class="cls-21" x="87.1" y="0">e</tspan><tspan class="cls-22" x="94.29" y="0">r</tspan><tspan class="cls-23" x="100.13" y="0">a</tspan><tspan class="cls-24" x="108.06" y="0">l</tspan><tspan class="cls-25" x="113.85" y="0">c</tspan><tspan class="cls-26" x="121.33" y="0">a</tspan><tspan class="cls-27" x="130.27" y="0">r</tspan><tspan class="cls-28" x="136.94" y="0">p</tspan><tspan class="cls-29" x="146.42" y="0">e</tspan><tspan class="cls-30" x="153.72" y="0">n</tspan><tspan class="cls-31" x="164.37" y="0">t</tspan><tspan class="cls-32" x="171.07" y="0">r</tspan><tspan class="cls-33" x="177.6" y="0">y</tspan><tspan x="184.77" y="0">, </tspan><tspan class="cls-34" x="193.67" y="0">f</tspan><tspan class="cls-35" x="199.27" y="0">r</tspan><tspan class="cls-36" x="205.15" y="0">a</tspan><tspan class="cls-37" x="214.03" y="0">m</tspan><tspan class="cls-38" x="228.06" y="0">i</tspan><tspan class="cls-39" x="234.79" y="0">n</tspan><tspan class="cls-40" x="245.1" y="0">g</tspan><tspan x="251.84" y="0">,</tspan><tspan class="cls-41" x="0" y="15">n</tspan><tspan class="cls-42" x="10.35" y="15">a</tspan><tspan class="cls-43" x="19.15" y="15">i</tspan><tspan x="26.23" y="15">l </tspan><tspan class="cls-44" x="35.83" y="15">p</tspan><tspan class="cls-45" x="45.63" y="15">u</tspan><tspan class="cls-46" x="56.1" y="15">l</tspan><tspan class="cls-47" x="62.45" y="15">l</tspan><tspan class="cls-38" x="68.46" y="15">i</tspan><tspan class="cls-39" x="75.2" y="15">n</tspan><tspan class="cls-48" x="85.51" y="15">g</tspan><tspan x="92.25" y="15">, </tspan><tspan class="cls-49" x="101.15" y="15">c</tspan><tspan class="cls-50" x="108.61" y="15">a</tspan><tspan class="cls-51" x="117.21" y="15">b</tspan><tspan class="cls-52" x="126.69" y="15">i</tspan><tspan class="cls-53" x="133.93" y="15">n</tspan><tspan class="cls-54" x="144.28" y="15">e</tspan><tspan x="151.78" y="15">t </tspan><tspan class="cls-55" x="162.02" y="15">m</tspan><tspan class="cls-56" x="175.33" y="15">a</tspan><tspan class="cls-57" x="183.96" y="15">k</tspan><tspan class="cls-58" x="191.77" y="15">i</tspan><tspan class="cls-39" x="198.51" y="15">n</tspan><tspan class="cls-48" x="208.81" y="15">g</tspan><tspan x="215.56" y="15">,</tspan><tspan class="cls-59" x="0" y="30">a</tspan><tspan class="cls-60" x="8.7" y="30">ss</tspan><tspan class="cls-61" x="20.5" y="30">e</tspan><tspan class="cls-62" x="28.33" y="30">m</tspan><tspan class="cls-63" x="41.9" y="30">b</tspan><tspan class="cls-47" x="50.47" y="30">l</tspan><tspan class="cls-38" x="56.49" y="30">i</tspan><tspan class="cls-39" x="63.22" y="30">n</tspan><tspan x="73.53" y="30">g </tspan><tspan class="cls-64" x="84.7" y="30">f</tspan><tspan class="cls-65" x="91.04" y="30">u</tspan><tspan class="cls-66" x="101.73" y="30">r</tspan><tspan class="cls-67" x="108.21" y="30">n</tspan><tspan class="cls-68" x="118.51" y="30">i</tspan><tspan class="cls-37" x="125.42" y="30">t</tspan><tspan class="cls-69" x="132.21" y="30">u</tspan><tspan class="cls-70" x="142.84" y="30">r</tspan><tspan class="cls-71" x="149.13" y="30">e</tspan><tspan x="155.7" y="30">,</tspan><tspan class="cls-72" x="0" y="45">u</tspan><tspan class="cls-73" x="10.78" y="45">p</tspan><tspan class="cls-74" x="19.06" y="45">h</tspan><tspan class="cls-75" x="29.91" y="45">o</tspan><tspan class="cls-76" x="36.69" y="45">l</tspan><tspan class="cls-77" x="42.04" y="45">s</tspan><tspan class="cls-78" x="48.21" y="45">t</tspan><tspan class="cls-79" x="54.96" y="45">e</tspan><tspan class="cls-66" x="62.81" y="45">r</tspan><tspan class="cls-38" x="69.29" y="45">i</tspan><tspan class="cls-39" x="76.03" y="45">n</tspan><tspan class="cls-48" x="86.34" y="45">g</tspan><tspan x="93.08" y="45">, </tspan><tspan class="cls-80" x="101.98" y="45">fi</tspan><tspan class="cls-67" x="112.52" y="45">n</tspan><tspan class="cls-81" x="122.81" y="45">i</tspan><tspan class="cls-82" x="129.23" y="45">s</tspan><tspan class="cls-83" x="136.53" y="45">h</tspan><tspan class="cls-38" x="147.26" y="45">i</tspan><tspan class="cls-39" x="153.99" y="45">n</tspan><tspan class="cls-48" x="164.3" y="45">g</tspan><tspan x="171.05" y="45">,</tspan><tspan class="cls-66" x="0" y="60">r</tspan><tspan class="cls-84" x="6.48" y="60">i</tspan><tspan class="cls-85" x="13.5" y="60">v</tspan><tspan class="cls-86" x="22.54" y="60">e</tspan><tspan class="cls-87" x="30.17" y="60">t</tspan><tspan class="cls-58" x="36.65" y="60">i</tspan><tspan class="cls-88" x="43.38" y="60">n</tspan><tspan class="cls-40" x="53.69" y="60">g</tspan><tspan x="60.44" y="60">, </tspan><tspan class="cls-89" x="69.34" y="60">b</tspan><tspan class="cls-29" x="78.66" y="60">e</tspan><tspan class="cls-90" x="85.95" y="60">n</tspan><tspan class="cls-91" x="96.35" y="60">d</tspan><tspan class="cls-38" x="106.29" y="60">i</tspan><tspan class="cls-39" x="113.02" y="60">n</tspan><tspan x="123.33" y="60">g </tspan><tspan class="cls-17" x="134.5" y="60">o</tspan><tspan x="142.73" y="60">r </tspan><tspan class="cls-92" x="0" y="75">s</tspan><tspan class="cls-49" x="6.38" y="75">h</tspan><tspan class="cls-62" x="17.1" y="75">a</tspan><tspan class="cls-93" x="26.15" y="75">p</tspan><tspan class="cls-38" x="35.87" y="75">i</tspan><tspan class="cls-39" x="42.6" y="75">n</tspan><tspan x="52.91" y="75">g </tspan><tspan class="cls-94" x="64.08" y="75">m</tspan><tspan class="cls-95" x="77.27" y="75">e</tspan><tspan class="cls-96" x="84.22" y="75">t</tspan><tspan class="cls-97" x="89.09" y="75">a</tspan><tspan class="cls-98" x="97.75" y="75">l</tspan><tspan x="103.46" y="75">,</tspan><tspan class="cls-99" x="0" y="90">s</tspan><tspan class="cls-31" x="6.42" y="90">t</tspan><tspan class="cls-100" x="13.12" y="90">r</tspan><tspan class="cls-101" x="19.52" y="90">i</tspan><tspan class="cls-57" x="26.59" y="90">k</tspan><tspan class="cls-58" x="34.4" y="90">i</tspan><tspan class="cls-88" x="41.13" y="90">n</tspan><tspan x="51.44" y="90">g </tspan><tspan class="cls-102" x="62.61" y="90">m</tspan><tspan class="cls-103" x="75.25" y="90">a</tspan><tspan class="cls-104" x="83.25" y="90">s</tspan><tspan class="cls-105" x="89.37" y="90">o</tspan><tspan class="cls-106" x="97.6" y="90">n</tspan><tspan class="cls-32" x="108.57" y="90">r</tspan><tspan x="115.09" y="90">y</tspan><tspan class="cls-107" x="0" y="105">d</tspan><tspan class="cls-108" x="10.22" y="105">r</tspan><tspan class="cls-109" x="16.62" y="105">i</tspan><tspan class="cls-110" x="23.7" y="105">l</tspan><tspan class="cls-111" x="29.64" y="105">l</tspan><tspan x="35.62" y="105">s </tspan><tspan class="cls-112" x="45.08" y="105">a</tspan><tspan class="cls-113" x="53.43" y="105">n</tspan><tspan x="63.81" y="105">d</tspan><tspan class="cls-77" x="0" y="120">s</tspan><tspan class="cls-114" x="6.17" y="120">t</tspan><tspan class="cls-115" x="12.94" y="120">e</tspan><tspan class="cls-116" x="19.96" y="120">e</tspan><tspan x="27.99" y="120">l </tspan><tspan class="cls-117" x="37.58" y="120">c</tspan><tspan class="cls-118" x="45.43" y="120">h</tspan><tspan class="cls-119" x="55.77" y="120">i</tspan><tspan class="cls-120" x="62.19" y="120">s</tspan><tspan class="cls-121" x="68.58" y="120">e</tspan><tspan class="cls-111" x="75.8" y="120">l</tspan><tspan x="81.79" y="120">s</tspan></text></svg>